<?xml version="1.0" standalone="no"?>
<!DOCTYPE svg PUBLIC "-//W3C//DTD SVG 20010904//EN"
 "http://www.w3.org/TR/2001/REC-SVG-20010904/DTD/svg10.dtd">
<svg version="1.0" xmlns="http://www.w3.org/2000/svg"
 width="48.000000pt" height="48.000000pt" viewBox="0 0 48.000000 48.000000"
 preserveAspectRatio="xMidYMid meet">

<g transform="translate(0.000000,48.000000) scale(0.100000,-0.100000)"
fill="#000000" stroke="none">
<path d="M113 273 c-38 -49 -40 -141 -5 -191 62 -86 191 -86 255 0 11 15 22
49 25 80 l5 53 -23 -29 c-20 -24 -28 -27 -59 -22 -20 3 -45 7 -55 8 -19 3 -37
-21 -50 -64 -4 -13 -11 -15 -33 -9 -37 10 -42 53 -14 116 19 43 19 48 5 71 -9
13 -18 24 -20 24 -1 0 -16 -17 -31 -37z"/>
</g>
</svg>
